<?xml version="1.0" encoding="UTF-8"?>
<mxfile host="app.diagrams.net" modified="2020-09-07T15:17:44.319Z" agent="5.0 (X11)" etag="TC154TFpR8TUNo5L3_Bd" version="13.6.6" type="device">
  <diagram id="YwVPcnQrtgQc1rpSdtJS" name="Page-1">
    <mxGraphModel dx="1382" dy="951" grid="1" gridSize="10" guides="1" tooltips="1" connect="1" arrows="1" fold="1" page="1" pageScale="1" pageWidth="827" pageHeight="1169" math="0" shadow="0">
      <root>
        <mxCell id="0" />
        <mxCell id="1" parent="0" />
        <mxCell id="5D05SsGc-P6bw-MVJZ4P-26" value="" style="rounded=0;whiteSpace=wrap;html=1;dashed=1;dashPattern=1 1;strokeWidth=2;strokeColor=#FF8000;" parent="1" vertex="1">
          <mxGeometry x="50" y="170" width="370" height="230" as="geometry" />
        </mxCell>
        <mxCell id="5D05SsGc-P6bw-MVJZ4P-23" value="" style="edgeStyle=orthogonalEdgeStyle;rounded=0;orthogonalLoop=1;jettySize=auto;html=1;endArrow=none;endFill=0;strokeColor=#0D0600;strokeWidth=2;" parent="1" source="hwIMmI3QBjWFJ3wTzXhl-31" target="hwIMmI3QBjWFJ3wTzXhl-2" edge="1">
          <mxGeometry relative="1" as="geometry" />
        </mxCell>
        <mxCell id="hwIMmI3QBjWFJ3wTzXhl-31" value="" style="rounded=0;whiteSpace=wrap;html=1;strokeWidth=2;fontSize=16;strokeColor=#A3A3A3;dashed=1;fillColor=none;" parent="1" vertex="1">
          <mxGeometry x="80" y="200" width="310" height="180" as="geometry" />
        </mxCell>
        <mxCell id="5D05SsGc-P6bw-MVJZ4P-21" style="edgeStyle=orthogonalEdgeStyle;rounded=0;orthogonalLoop=1;jettySize=auto;html=1;exitX=1;exitY=0.5;exitDx=0;exitDy=0;entryX=0.001;entryY=0.462;entryDx=0;entryDy=0;entryPerimeter=0;endArrow=none;endFill=0;strokeColor=#050300;strokeWidth=2;" parent="1" source="hwIMmI3QBjWFJ3wTzXhl-2" edge="1">
          <mxGeometry relative="1" as="geometry">
            <mxPoint x="320.03999999999996" y="479.24" as="targetPoint" />
          </mxGeometry>
        </mxCell>
        <UserObject label="Serveur Etalab" link="https://circleci.com/gh/139bercy/decp-rama" id="hwIMmI3QBjWFJ3wTzXhl-2">
          <mxCell style="rounded=0;whiteSpace=wrap;html=1;fontSize=16;" parent="1" vertex="1">
            <mxGeometry x="165" y="455" width="140" height="50" as="geometry" />
          </mxCell>
        </UserObject>
        <mxCell id="hwIMmI3QBjWFJ3wTzXhl-13" style="edgeStyle=orthogonalEdgeStyle;rounded=0;orthogonalLoop=1;jettySize=auto;html=1;fontSize=16;exitX=0.5;exitY=1;exitDx=0;exitDy=0;strokeWidth=2;entryX=0.5;entryY=0;entryDx=0;entryDy=0;strokeColor=#0D0600;" parent="1" source="hwIMmI3QBjWFJ3wTzXhl-11" target="hwIMmI3QBjWFJ3wTzXhl-2" edge="1">
          <mxGeometry relative="1" as="geometry">
            <mxPoint x="280" y="410" as="sourcePoint" />
            <Array as="points">
              <mxPoint x="235" y="340" />
            </Array>
            <mxPoint x="238" y="435" as="targetPoint" />
          </mxGeometry>
        </mxCell>
        <mxCell id="5D05SsGc-P6bw-MVJZ4P-22" value="&lt;font style=&quot;font-size: 16px&quot;&gt;FTP&lt;/font&gt;" style="edgeLabel;html=1;align=center;verticalAlign=middle;resizable=0;points=[];" parent="hwIMmI3QBjWFJ3wTzXhl-13" vertex="1" connectable="0">
          <mxGeometry x="0.1716" y="2" relative="1" as="geometry">
            <mxPoint x="-2" y="-46.39" as="offset" />
          </mxGeometry>
        </mxCell>
        <mxCell id="hwIMmI3QBjWFJ3wTzXhl-26" value="2" style="ellipse;whiteSpace=wrap;html=1;aspect=fixed;fontSize=16;fillColor=#dae8fc;strokeColor=#6c8ebf;" parent="1" vertex="1">
          <mxGeometry x="217.5" y="400" width="35" height="35" as="geometry" />
        </mxCell>
        <mxCell id="hwIMmI3QBjWFJ3wTzXhl-5" value="Serveur FTP DGFiP" style="text;html=1;strokeColor=none;align=center;verticalAlign=middle;whiteSpace=wrap;rounded=0;fontSize=16;fillColor=#ffffff;" parent="1" vertex="1">
          <mxGeometry x="155" y="190" width="160" height="20" as="geometry" />
        </mxCell>
        <mxCell id="hwIMmI3QBjWFJ3wTzXhl-35" style="edgeStyle=orthogonalEdgeStyle;rounded=0;orthogonalLoop=1;jettySize=auto;html=1;exitX=0.5;exitY=0;exitDx=0;exitDy=0;entryX=0.5;entryY=1;entryDx=0;entryDy=0;strokeWidth=2;fontSize=16;" parent="1" source="hwIMmI3QBjWFJ3wTzXhl-36" target="hwIMmI3QBjWFJ3wTzXhl-2" edge="1">
          <mxGeometry relative="1" as="geometry" />
        </mxCell>
        <UserObject label="Gitlab Etalab (privé)" link="https://github.com/139bercy/decp-rama/" id="hwIMmI3QBjWFJ3wTzXhl-34">
          <mxCell style="rounded=0;whiteSpace=wrap;html=1;fontSize=16;" parent="1" vertex="1">
            <mxGeometry x="165" y="560" width="140" height="50" as="geometry" />
          </mxCell>
        </UserObject>
        <mxCell id="RhvO9nnodoMTBFxERSfM-1" value="0" style="ellipse;whiteSpace=wrap;html=1;aspect=fixed;fontSize=16;fillColor=#dae8fc;strokeColor=#6c8ebf;" parent="1" vertex="1">
          <mxGeometry x="30" y="640" width="35" height="35" as="geometry" />
        </mxCell>
        <mxCell id="RhvO9nnodoMTBFxERSfM-2" value="&lt;font style=&quot;font-size: 14px&quot;&gt;numéro de l&#39;instruction correspondante, voir ci-dessous&lt;/font&gt;" style="text;html=1;strokeColor=none;align=left;verticalAlign=middle;whiteSpace=wrap;rounded=0;dashed=1;fontSize=16;fillColor=#ffffff;fontStyle=2" parent="1" vertex="1">
          <mxGeometry x="70" y="647.5" width="370" height="20" as="geometry" />
        </mxCell>
        <mxCell id="5D05SsGc-P6bw-MVJZ4P-1" value="" style="group" parent="1" vertex="1" connectable="0">
          <mxGeometry x="99" y="241" width="261" height="99" as="geometry" />
        </mxCell>
        <mxCell id="hwIMmI3QBjWFJ3wTzXhl-7" value="" style="rounded=0;whiteSpace=wrap;html=1;strokeWidth=2;strokeColor=#7EA6E0;fontSize=16;" parent="5D05SsGc-P6bw-MVJZ4P-1" vertex="1">
          <mxGeometry width="245.2296072507553" height="83.65116279069768" as="geometry" />
        </mxCell>
        <mxCell id="hwIMmI3QBjWFJ3wTzXhl-10" value="" style="rounded=0;whiteSpace=wrap;html=1;strokeWidth=2;strokeColor=#7EA6E0;fontSize=16;" parent="5D05SsGc-P6bw-MVJZ4P-1" vertex="1">
          <mxGeometry x="7.885196374622356" y="7.674418604651163" width="245.2296072507553" height="83.65116279069768" as="geometry" />
        </mxCell>
        <mxCell id="hwIMmI3QBjWFJ3wTzXhl-11" value="Fichiers du jour" style="rounded=0;whiteSpace=wrap;html=1;verticalAlign=top;strokeWidth=2;strokeColor=#7EA6E0;fontSize=16;" parent="5D05SsGc-P6bw-MVJZ4P-1" vertex="1">
          <mxGeometry x="16.55891238670695" y="14.58139534883721" width="244.44108761329304" height="84.4186046511628" as="geometry" />
        </mxCell>
        <mxCell id="hwIMmI3QBjWFJ3wTzXhl-20" value="&lt;font style=&quot;font-size: 16px;&quot;&gt;XML&lt;/font&gt;" style="shape=process;whiteSpace=wrap;html=1;backgroundOutline=1;fontSize=16;" parent="5D05SsGc-P6bw-MVJZ4P-1" vertex="1">
          <mxGeometry x="109.41019292604503" y="61.329999999999984" width="58.7459807073955" height="30" as="geometry" />
        </mxCell>
        <mxCell id="hwIMmI3QBjWFJ3wTzXhl-36" value="code" style="text;html=1;strokeColor=none;align=center;verticalAlign=middle;whiteSpace=wrap;rounded=0;dashed=1;fontSize=16;fillColor=#ffffff;" parent="1" vertex="1">
          <mxGeometry x="215" y="527.5" width="40" height="20" as="geometry" />
        </mxCell>
        <mxCell id="5D05SsGc-P6bw-MVJZ4P-10" style="edgeStyle=orthogonalEdgeStyle;rounded=0;orthogonalLoop=1;jettySize=auto;html=1;exitX=0.5;exitY=0;exitDx=0;exitDy=0;entryX=0.5;entryY=1;entryDx=0;entryDy=0;strokeWidth=2;fontSize=16;endArrow=none;endFill=0;" parent="1" source="hwIMmI3QBjWFJ3wTzXhl-34" target="hwIMmI3QBjWFJ3wTzXhl-36" edge="1">
          <mxGeometry relative="1" as="geometry">
            <mxPoint x="235" y="555" as="sourcePoint" />
            <mxPoint x="235" y="505" as="targetPoint" />
          </mxGeometry>
        </mxCell>
        <mxCell id="5D05SsGc-P6bw-MVJZ4P-11" value="" style="group" parent="1" vertex="1" connectable="0">
          <mxGeometry x="440" y="415" width="360" height="190" as="geometry" />
        </mxCell>
        <mxCell id="5D05SsGc-P6bw-MVJZ4P-5" value="" style="rounded=0;whiteSpace=wrap;html=1;strokeWidth=2;fontSize=16;strokeColor=#A3A3A3;dashed=1;fillColor=none;" parent="5D05SsGc-P6bw-MVJZ4P-11" vertex="1">
          <mxGeometry y="10" width="360" height="180" as="geometry" />
        </mxCell>
        <mxCell id="5D05SsGc-P6bw-MVJZ4P-6" value="files.data.gouv.fr" style="text;html=1;strokeColor=none;align=center;verticalAlign=middle;whiteSpace=wrap;rounded=0;fontSize=16;fillColor=#ffffff;" parent="5D05SsGc-P6bw-MVJZ4P-11" vertex="1">
          <mxGeometry x="100" y="181" width="160" height="20" as="geometry" />
        </mxCell>
        <UserObject label="" link="https://files.data.gouv.fr/decp/" id="5D05SsGc-P6bw-MVJZ4P-12">
          <mxCell style="group" parent="5D05SsGc-P6bw-MVJZ4P-11" vertex="1" connectable="0">
            <mxGeometry x="49.5" y="45.5" width="261" height="99" as="geometry" />
          </mxCell>
        </UserObject>
        <mxCell id="5D05SsGc-P6bw-MVJZ4P-13" value="" style="rounded=0;whiteSpace=wrap;html=1;strokeWidth=2;strokeColor=#7EA6E0;fontSize=16;" parent="5D05SsGc-P6bw-MVJZ4P-12" vertex="1">
          <mxGeometry width="245.2296072507553" height="83.65116279069768" as="geometry" />
        </mxCell>
        <mxCell id="5D05SsGc-P6bw-MVJZ4P-14" value="" style="rounded=0;whiteSpace=wrap;html=1;strokeWidth=2;strokeColor=#7EA6E0;fontSize=16;" parent="5D05SsGc-P6bw-MVJZ4P-12" vertex="1">
          <mxGeometry x="7.885196374622356" y="7.674418604651163" width="245.2296072507553" height="83.65116279069768" as="geometry" />
        </mxCell>
        <mxCell id="5D05SsGc-P6bw-MVJZ4P-15" value="&lt;div&gt;&lt;font color=&quot;#1E05FF&quot;&gt;&lt;u&gt;Arborescence&lt;/u&gt;&lt;/font&gt;&lt;/div&gt;&lt;div&gt;&lt;font color=&quot;#1E05FF&quot;&gt;&lt;u&gt;SIRET acheteur/date&lt;/u&gt;&lt;/font&gt;&lt;/div&gt;" style="rounded=0;whiteSpace=wrap;html=1;verticalAlign=top;strokeWidth=2;strokeColor=#7EA6E0;fontSize=16;" parent="5D05SsGc-P6bw-MVJZ4P-12" vertex="1">
          <mxGeometry x="16.55891238670695" y="14.58139534883721" width="244.44108761329304" height="84.4186046511628" as="geometry" />
        </mxCell>
        <mxCell id="5D05SsGc-P6bw-MVJZ4P-16" value="&lt;font style=&quot;font-size: 16px;&quot;&gt;XML&lt;/font&gt;" style="shape=process;whiteSpace=wrap;html=1;backgroundOutline=1;fontSize=16;" parent="5D05SsGc-P6bw-MVJZ4P-12" vertex="1">
          <mxGeometry x="109.41019292604503" y="61.329999999999984" width="58.7459807073955" height="30" as="geometry" />
        </mxCell>
        <mxCell id="5D05SsGc-P6bw-MVJZ4P-39" style="edgeStyle=orthogonalEdgeStyle;rounded=0;orthogonalLoop=1;jettySize=auto;html=1;exitX=1;exitY=0.5;exitDx=0;exitDy=0;entryX=0;entryY=0.5;entryDx=0;entryDy=0;endArrow=none;endFill=0;strokeColor=#0D0600;strokeWidth=2;" parent="1" source="5D05SsGc-P6bw-MVJZ4P-18" target="hwIMmI3QBjWFJ3wTzXhl-28" edge="1">
          <mxGeometry relative="1" as="geometry" />
        </mxCell>
        <mxCell id="5D05SsGc-P6bw-MVJZ4P-18" value="rsync" style="text;html=1;strokeColor=none;align=center;verticalAlign=middle;whiteSpace=wrap;rounded=0;dashed=1;fontSize=16;fillColor=#ffffff;" parent="1" vertex="1">
          <mxGeometry x="330" y="470" width="40" height="20" as="geometry" />
        </mxCell>
        <mxCell id="5D05SsGc-P6bw-MVJZ4P-28" value="Pare-feu DGFiP" style="text;html=1;strokeColor=none;align=center;verticalAlign=middle;whiteSpace=wrap;rounded=0;fontSize=16;fillColor=#ffffff;" parent="1" vertex="1">
          <mxGeometry x="155" y="160" width="160" height="20" as="geometry" />
        </mxCell>
        <mxCell id="5D05SsGc-P6bw-MVJZ4P-31" value="" style="group" parent="1" vertex="1" connectable="0">
          <mxGeometry x="440" y="190" width="360" height="190.5" as="geometry" />
        </mxCell>
        <mxCell id="5D05SsGc-P6bw-MVJZ4P-9" value="" style="rounded=0;whiteSpace=wrap;html=1;strokeWidth=2;fontSize=16;strokeColor=#A3A3A3;dashed=1;fillColor=none;" parent="5D05SsGc-P6bw-MVJZ4P-31" vertex="1">
          <mxGeometry y="10.5" width="360" height="180" as="geometry" />
        </mxCell>
        <mxCell id="5D05SsGc-P6bw-MVJZ4P-30" value="data.gouv.fr" style="text;html=1;strokeColor=none;align=center;verticalAlign=middle;whiteSpace=wrap;rounded=0;fontSize=16;fillColor=#ffffff;" parent="5D05SsGc-P6bw-MVJZ4P-31" vertex="1">
          <mxGeometry x="135" width="90" height="20" as="geometry" />
        </mxCell>
        <UserObject label="&lt;p&gt;&lt;font color=&quot;#1E05FF&quot;&gt;&lt;u&gt;Données essentielles de la commande publique transmises via le PES Marché&lt;br&gt;&lt;/u&gt;&lt;/font&gt;                        &lt;font color=&quot;#1E05FF&quot;&gt;&lt;u&gt;&lt;br&gt;&lt;/u&gt;&lt;/font&gt;                    &lt;/p&gt;" link="https://www.data.gouv.fr/datasets/5bd0b6fd8b4c413d0801dc57" id="5D05SsGc-P6bw-MVJZ4P-3">
          <mxCell style="rounded=0;whiteSpace=wrap;html=1;verticalAlign=middle;strokeWidth=2;strokeColor=#7EA6E0;fontSize=16;align=center;" parent="5D05SsGc-P6bw-MVJZ4P-31" vertex="1">
            <mxGeometry x="20" y="40.5" width="320" height="120" as="geometry" />
          </mxCell>
        </UserObject>
        <mxCell id="5D05SsGc-P6bw-MVJZ4P-33" style="edgeStyle=orthogonalEdgeStyle;rounded=0;orthogonalLoop=1;jettySize=auto;html=1;exitX=0.5;exitY=1;exitDx=0;exitDy=0;endArrow=classic;endFill=1;strokeColor=#0D0600;strokeWidth=2;entryX=0.531;entryY=0.009;entryDx=0;entryDy=0;entryPerimeter=0;" parent="1" source="5D05SsGc-P6bw-MVJZ4P-35" target="5D05SsGc-P6bw-MVJZ4P-13" edge="1">
          <mxGeometry relative="1" as="geometry">
            <Array as="points" />
          </mxGeometry>
        </mxCell>
        <mxCell id="5D05SsGc-P6bw-MVJZ4P-35" value="référence" style="text;html=1;strokeColor=none;align=center;verticalAlign=middle;whiteSpace=wrap;rounded=0;dashed=1;fontSize=16;fillColor=#ffffff;" parent="1" vertex="1">
          <mxGeometry x="600" y="395" width="40" height="20" as="geometry" />
        </mxCell>
        <mxCell id="5D05SsGc-P6bw-MVJZ4P-37" style="edgeStyle=orthogonalEdgeStyle;rounded=0;orthogonalLoop=1;jettySize=auto;html=1;exitX=0.5;exitY=1;exitDx=0;exitDy=0;endArrow=none;endFill=0;strokeColor=#0D0600;strokeWidth=2;" parent="1" source="5D05SsGc-P6bw-MVJZ4P-3" target="5D05SsGc-P6bw-MVJZ4P-35" edge="1">
          <mxGeometry relative="1" as="geometry" />
        </mxCell>
        <mxCell id="5D05SsGc-P6bw-MVJZ4P-40" style="edgeStyle=orthogonalEdgeStyle;rounded=0;orthogonalLoop=1;jettySize=auto;html=1;exitX=1;exitY=0.5;exitDx=0;exitDy=0;entryX=0.001;entryY=0.561;entryDx=0;entryDy=0;entryPerimeter=0;endArrow=classic;endFill=1;strokeColor=#0D0600;strokeWidth=2;" parent="1" source="hwIMmI3QBjWFJ3wTzXhl-28" target="5D05SsGc-P6bw-MVJZ4P-13" edge="1">
          <mxGeometry relative="1" as="geometry" />
        </mxCell>
        <mxCell id="hwIMmI3QBjWFJ3wTzXhl-28" value="7" style="ellipse;whiteSpace=wrap;html=1;aspect=fixed;fontSize=16;fillColor=#dae8fc;strokeColor=#6c8ebf;" parent="1" vertex="1">
          <mxGeometry x="405" y="490" width="35" height="35" as="geometry" />
        </mxCell>
      </root>
    </mxGraphModel>
  </diagram>
</mxfile>
